<?xml version="1.0" standalone="no"?>
<!DOCTYPE svg PUBLIC "-//W3C//DTD SVG 20010904//EN"
 "http://www.w3.org/TR/2001/REC-SVG-20010904/DTD/svg10.dtd">
<svg version="1.0" xmlns="http://www.w3.org/2000/svg"
 width="1217.000000pt" height="658.000000pt" viewBox="0 0 1217.000000 658.000000"
 preserveAspectRatio="xMidYMid meet">

<g transform="translate(0.000000,658.000000) scale(0.100000,-0.100000)"
fill="#000000" stroke="none">
<path d="M0 3290 l0 -3290 6085 0 6085 0 -1 473 c0 259 -3 465 -7 457 -4 -8
-13 -16 -21 -18 -12 -3 -12 0 -1 12 7 9 9 16 5 16 -4 0 -2 6 4 14 9 11 9 16 0
22 -8 4 -9 3 -5 -4 11 -18 -10 -14 -28 4 -9 8 -16 12 -16 8 0 -5 -5 -3 -12 4
-9 9 -16 8 -32 -6 -18 -16 -19 -16 -13 1 7 20 -3 22 -22 4 -10 -10 -12 -8 -9
8 2 13 -2 19 -10 17 -8 -1 -12 3 -9 10 2 7 -6 23 -19 34 -12 12 -20 26 -16 30
4 5 0 3 -9 -4 -13 -10 -22 -9 -43 1 -14 8 -23 17 -19 20 3 4 -4 7 -16 7 -16 0
-21 4 -18 15 7 16 -12 32 -22 19 -19 -26 -38 -5 -33 37 1 4 -12 5 -27 3 -23
-3 -30 2 -36 19 -4 12 -7 25 -6 30 1 4 -4 7 -10 7 -6 0 -9 6 -6 14 3 8 0 17
-7 19 -10 4 -12 -1 -9 -14 4 -13 0 -19 -12 -19 -11 0 -15 5 -12 14 4 10 0 13
-14 11 -11 -2 -22 2 -26 10 -3 8 -13 15 -23 15 -29 0 -50 11 -50 26 0 8 -5 14
-11 14 -6 0 -9 9 -6 20 3 11 1 18 -3 15 -5 -3 -16 2 -24 11 -9 9 -16 11 -16 4
0 -6 -5 -8 -10 -5 -6 4 -7 12 -3 18 4 8 1 7 -9 -1 -14 -11 -17 -10 -23 8 -3
11 -11 18 -16 15 -13 -9 -11 9 3 23 9 9 9 12 0 12 -7 0 -12 -4 -12 -10 0 -15
-32 -12 -54 5 -10 8 -23 12 -28 9 -9 -6 -6 25 5 42 4 7 -3 14 -18 17 -14 2
-28 0 -31 -4 -3 -5 4 -9 15 -9 11 0 18 -6 17 -15 -3 -22 -16 -31 -16 -11 0 13
-5 16 -20 11 -15 -5 -18 -3 -14 9 5 12 0 16 -18 16 -32 0 -41 10 -25 28 8 11
8 14 0 9 -6 -4 -14 -3 -18 3 -3 5 -1 10 5 10 6 0 9 4 6 9 -4 5 -18 8 -32 6
-17 -2 -24 2 -20 11 3 8 0 11 -8 8 -7 -3 -16 2 -19 10 -4 9 -13 13 -21 10 -8
-3 -17 0 -21 5 -3 6 -11 9 -16 6 -5 -4 -9 -1 -9 4 0 6 -6 11 -13 11 -8 0 -19
12 -26 26 -8 18 -17 24 -27 20 -12 -4 -15 -2 -10 9 3 9 0 15 -9 15 -8 0 -14
-3 -14 -7 3 -21 -2 -23 -18 -8 -14 14 -14 18 -2 27 10 7 8 8 -8 3 -19 -5 -23
-2 -23 15 0 12 -5 18 -10 15 -6 -3 -10 -1 -10 6 0 6 -8 9 -20 6 -18 -5 -25 6
-22 34 1 4 -8 5 -18 2 -12 -3 -20 0 -20 6 0 7 4 10 9 6 5 -3 12 -1 15 4 3 4
-2 8 -12 8 -46 0 -57 3 -43 12 9 6 10 11 2 15 -6 4 -15 5 -20 2 -5 -3 -14 1
-21 9 -7 8 -17 12 -24 8 -6 -4 -4 1 4 12 14 16 13 17 -6 11 -25 -8 -56 2 -48
15 3 5 -9 9 -25 9 -17 0 -31 4 -31 9 0 14 56 52 64 43 4 -4 6 -2 4 3 -1 6 42
56 97 111 547 548 778 1304 629 2065 -117 601 -474 1127 -999 1471 -272 179
-573 291 -920 344 -136 20 -450 23 -585 5 -664 -89 -1209 -419 -1597 -967
-109 -154 -181 -288 -248 -464 -18 -47 -36 -94 -40 -105 -10 -24 -12 -32 -14
-46 -1 -7 -11 -9 -28 -4 -16 4 -36 7 -45 7 -10 0 -18 4 -18 9 0 6 4 8 9 5 5
-3 11 6 14 21 5 26 4 26 -9 9 -13 -19 -14 -19 -33 -1 -11 9 -27 15 -35 12 -10
-4 -13 -1 -10 7 3 8 -10 23 -30 36 -20 12 -36 26 -36 31 0 5 -7 9 -16 9 -8 0
-12 5 -9 10 3 6 -1 10 -10 10 -12 0 -15 5 -11 16 5 13 4 14 -7 6 -8 -7 -17 -9
-20 -5 -4 3 -14 0 -22 -7 -13 -11 -16 -11 -13 1 2 8 10 17 18 21 11 5 9 7 -7
7 -17 1 -23 7 -23 24 0 13 6 29 12 37 11 12 10 12 -2 4 -18 -12 -60 -10 -69 3
-3 6 -16 9 -28 8 -15 -1 -19 3 -15 13 4 12 0 14 -16 10 -15 -4 -22 -2 -22 8 0
8 -6 13 -12 12 -7 -2 -12 3 -10 11 2 8 -3 11 -13 8 -8 -4 -15 -2 -15 4 0 5
-11 7 -25 5 -23 -4 -25 -2 -21 17 3 12 3 16 0 10 -7 -17 -44 2 -44 22 0 9 -6
12 -15 9 -8 -4 -15 -1 -15 5 0 6 -9 11 -21 11 -15 0 -19 5 -15 16 3 8 2 12 -4
9 -9 -5 -15 16 -11 38 1 4 3 28 6 52 18 177 208 676 357 938 108 192 201 320
322 445 146 152 288 236 441 261 28 5 -1639 9 -3702 10 l-3753 1 0 -3290z
m3337 3229 c15 -5 43 -24 61 -42 111 -107 13 -289 -144 -264 -73 12 -124 76
-124 157 0 108 108 187 207 149z m-3032 -264 c32 -31 32 -69 0 -100 -62 -63
-160 7 -120 85 24 47 81 55 120 15z m5750 -260 c52 -51 15 -135 -59 -135 -69
0 -100 83 -50 134 34 34 77 34 109 1z m3470 -51 c844 -122 1550 -712 1819
-1522 271 -817 60 -1707 -549 -2316 -136 -136 -386 -329 -398 -308 -3 4 -68
223 -145 487 -78 264 -148 500 -157 524 -21 59 -51 107 -104 164 -43 46 -44
48 -38 97 7 61 -10 84 -70 97 -59 12 -322 8 -372 -6 -61 -17 -571 -5 -656 16
-149 37 -290 23 -420 -41 -169 -84 -692 -591 -870 -844 -27 -39 -53 -71 -56
-72 -11 0 -122 144 -191 250 -356 544 -459 1217 -284 1850 170 615 601 1132
1181 1415 274 134 496 194 850 229 76 8 350 -5 460 -20z m-7141 -190 c9 -8 16
-19 16 -23 0 -15 -25 -31 -47 -31 -19 0 -23 5 -23 29 0 26 9 38 32 40 4 1 14
-6 22 -15z m-1235 -150 c42 -53 14 -134 -50 -149 -41 -10 -89 36 -89 85 0 55
31 90 80 90 30 0 43 -6 59 -26z m2716 6 c14 -43 -44 -67 -68 -28 -8 12 -7 21
2 32 19 23 58 20 66 -4z m2812 -1006 c-8 -8 -37 8 -31 17 3 5 10 7 15 4 5 -4
10 0 10 7 1 7 3 5 6 -5 3 -10 3 -21 0 -23z m-5868 -65 c63 -22 80 -102 32
-150 -42 -42 -99 -41 -135 2 -43 50 -30 115 29 147 25 14 35 14 74 1z m1579
-18 c5 -32 -23 -54 -49 -40 -19 10 -26 49 -12 63 4 4 19 6 33 4 18 -2 26 -10
28 -27z m2402 -185 c0 -2 3 -11 6 -19 9 -23 -24 -49 -47 -37 -19 10 -26 40
-12 53 7 8 53 10 53 3z m-4457 -653 c63 -32 86 -127 47 -191 -41 -66 -116 -89
-187 -55 -49 23 -73 66 -73 130 0 44 5 58 31 88 48 54 111 64 182 28z m5415
-229 c4 -26 -20 -37 -43 -21 -10 8 -14 19 -9 30 9 25 48 18 52 -9z m4168 -316
c4 -5 4 -11 0 -15 -10 -11 -314 -17 -382 -8 -56 7 -71 20 -31 28 36 8 405 3
413 -5z m-4555 -97 c20 -20 29 -39 29 -61 0 -44 -47 -90 -93 -90 -79 0 -118
97 -61 154 37 37 86 35 125 -3z m3969 14 c66 -34 80 -135 31 -226 -36 -69
-126 -143 -201 -166 -43 -14 -78 -37 -163 -111 -59 -52 -109 -93 -111 -91 -10
12 -136 242 -136 248 0 4 42 40 94 80 54 42 99 85 106 102 24 56 138 145 220
170 43 13 130 10 160 -6z m-6040 -414 c13 -25 4 -48 -21 -56 -38 -12 -65 35
-37 63 18 18 46 14 58 -7z m-2833 -323 c35 -33 32 -89 -8 -122 -40 -34 -74
-33 -110 3 -37 38 -39 82 -4 116 32 33 89 34 122 3z m4371 -334 c29 -20 30
-74 2 -99 -42 -38 -110 -9 -110 47 0 56 60 86 108 52z m-1127 -29 c62 -33 89
-128 54 -195 -33 -64 -137 -87 -201 -45 -36 23 -67 97 -59 138 20 95 121 145
206 102z m4549 -242 c0 -5 -3 -18 -6 -30 -5 -19 -9 -20 -31 -10 l-24 11 23 18
c25 19 38 23 38 11z m-7575 -682 c61 -34 83 -127 45 -189 -59 -96 -212 -81
-249 24 -20 57 -8 110 35 150 48 46 104 51 169 15z m4253 -181 c59 -36 79
-126 42 -188 -75 -123 -260 -76 -260 66 0 54 22 97 63 122 42 26 112 26 155 0z
m-2068 -105 c40 -21 57 -73 35 -114 -18 -36 -43 -51 -83 -51 -65 0 -108 70
-78 129 27 51 71 64 126 36z"/>
<path d="M9355 4541 c-50 -13 -90 -38 -144 -90 -30 -29 -71 -56 -99 -66 -154
-55 -257 -139 -307 -247 -59 -130 -49 -458 18 -593 22 -45 84 -125 97 -125 4
0 12 37 16 82 9 82 9 83 39 88 29 5 30 7 37 72 13 132 42 188 132 252 69 49
82 72 89 155 8 97 55 116 259 109 124 -4 187 -24 241 -76 43 -40 55 -71 88
-215 17 -73 32 -133 34 -135 2 -2 6 15 10 37 4 22 23 62 45 92 58 77 74 125
68 208 -10 139 -125 310 -255 378 -114 61 -288 96 -368 74z"/>
<path d="M6485 4760 c-3 -6 1 -7 9 -4 18 7 21 14 7 14 -6 0 -13 -4 -16 -10z"/>
<path d="M6630 4760 c-9 -6 -10 -10 -3 -10 6 0 15 5 18 10 8 12 4 12 -15 0z"/>
<path d="M6591 4713 c7 -12 15 -20 18 -17 3 2 -3 12 -13 22 -17 16 -18 16 -5
-5z"/>
<path d="M6619 4683 c-8 -10 -9 -14 -2 -10 6 4 15 2 19 -4 5 -8 9 -7 15 2 17
28 -11 39 -32 12z"/>
<path d="M6740 4611 c0 -10 19 -25 25 -20 1 2 -3 10 -11 17 -8 7 -14 8 -14 3z"/>
<path d="M6783 4567 c-3 -6 -1 -7 5 -3 5 3 12 1 14 -6 3 -8 6 -7 10 3 7 17
-19 22 -29 6z"/>
<path d="M6896 4557 c3 -10 9 -15 12 -12 3 3 0 11 -7 18 -10 9 -11 8 -5 -6z"/>
<path d="M6886 4517 c3 -10 9 -15 12 -12 3 3 0 11 -7 18 -10 9 -11 8 -5 -6z"/>
<path d="M7004 4419 c-3 -6 -2 -15 3 -20 5 -5 9 -1 10 11 2 22 -2 25 -13 9z"/>
<path d="M10880 1830 c0 -5 5 -10 11 -10 5 0 7 5 4 10 -3 6 -8 10 -11 10 -2 0
-4 -4 -4 -10z"/>
<path d="M11128 1733 c7 -3 16 -2 19 1 4 3 -2 6 -13 5 -11 0 -14 -3 -6 -6z"/>
<path d="M11250 1639 c0 -5 5 -7 10 -4 6 3 10 8 10 11 0 2 -4 4 -10 4 -5 0
-10 -5 -10 -11z"/>
<path d="M11305 1630 c3 -5 8 -10 11 -10 2 0 4 5 4 10 0 6 -5 10 -11 10 -5 0
-7 -4 -4 -10z"/>
<path d="M11320 1535 c0 -7 30 -13 34 -7 3 4 -4 9 -15 9 -10 1 -19 0 -19 -2z"/>
<path d="M11385 1499 c-4 -6 -5 -12 -2 -15 2 -3 7 2 10 11 7 17 1 20 -8 4z"/>
<path d="M11746 1307 c3 -10 9 -15 12 -12 3 3 0 11 -7 18 -10 9 -11 8 -5 -6z"/>
<path d="M11651 1297 c-8 -10 -7 -14 4 -14 8 0 11 5 8 10 -4 6 3 8 15 5 12 -4
20 -2 16 3 -8 13 -30 11 -43 -4z"/>
<path d="M11768 1203 c7 -3 16 -2 19 1 4 3 -2 6 -13 5 -11 0 -14 -3 -6 -6z"/>
<path d="M11940 1122 c0 -5 7 -9 15 -9 8 0 12 4 9 9 -3 4 -9 8 -15 8 -5 0 -9
-4 -9 -8z"/>
<path d="M12095 1029 c-4 -6 -5 -12 -2 -15 2 -3 7 2 10 11 7 17 1 20 -8 4z"/>
</g>
</svg>
